<?xml version="1.0" standalone="no"?>
<!DOCTYPE svg PUBLIC "-//W3C//DTD SVG 20010904//EN"
 "http://www.w3.org/TR/2001/REC-SVG-20010904/DTD/svg10.dtd">
<svg version="1.0" xmlns="http://www.w3.org/2000/svg"
 width="938.000000pt" height="938.000000pt" viewBox="0 0 938.000000 938.000000"
 preserveAspectRatio="xMidYMid meet">

<g transform="translate(0.000000,938.000000) scale(0.100000,-0.100000)"
fill="#000000" stroke="none">
<path d="M5990 9029 c-274 -25 -562 -118 -815 -264 -49 -29 -177 -104 -284
-168 -189 -112 -193 -115 -170 -130 71 -43 349 -207 377 -221 38 -19 31 -22
208 85 221 133 376 198 578 241 136 29 395 31 536 4 557 -107 1007 -496 1174
-1016 57 -175 68 -264 75 -570 l6 -275 210 -127 c116 -69 214 -127 219 -127
15 -2 0 843 -17 934 -79 424 -238 745 -512 1033 -162 171 -332 295 -550 402
-237 116 -452 177 -705 200 -130 11 -193 11 -330 -1z"/>
<path d="M3940 8033 c-162 -97 -353 -210 -425 -253 -71 -42 -254 -150 -405
-240 -151 -90 -313 -186 -360 -213 -47 -28 -139 -83 -205 -122 -152 -91 -749
-446 -792 -471 l-33 -18 0 -253 c0 -139 3 -253 7 -253 6 0 110 61 343 200 52
32 208 124 345 205 138 82 342 203 455 270 113 67 329 195 480 285 151 89 295
175 320 190 25 15 106 63 180 107 74 44 259 153 410 243 151 90 305 181 343
203 37 22 67 44 67 48 0 12 -401 249 -420 249 -8 -1 -148 -80 -310 -177z"/>
<path d="M1053 6317 c-229 -138 -327 -212 -460 -345 -453 -454 -650 -1116
-523 -1752 101 -503 392 -939 820 -1227 65 -44 375 -223 386 -223 7 0 4 485
-4 496 -4 6 -38 30 -76 53 -415 251 -678 681 -717 1171 -27 346 58 668 252
961 86 128 273 314 399 396 52 34 105 69 118 78 22 16 22 18 22 265 0 138 -3
250 -7 250 -5 0 -99 -55 -210 -123z"/>
<path d="M7666 5508 c-4 -370 -6 -1079 -4 -1575 l3 -901 208 118 c115 65 213
122 217 126 8 8 16 2652 9 2658 -12 10 -397 236 -410 241 -15 6 -17 -51 -23
-667z"/>
<path d="M1732 2759 l3 -250 200 -113 c110 -62 371 -208 580 -326 209 -118
589 -332 845 -475 256 -144 555 -313 665 -375 110 -62 204 -113 210 -113 9 0
386 210 427 238 15 10 -27 37 -300 190 -174 99 -580 327 -902 508 -1214 683
-1721 967 -1725 967 -3 0 -4 -113 -3 -251z"/>
<path d="M7875 2630 c-117 -66 -212 -126 -216 -136 -4 -11 -8 -98 -8 -194 -2
-304 -42 -483 -166 -732 -69 -139 -140 -234 -280 -373 -169 -170 -325 -273
-532 -350 -269 -102 -590 -122 -858 -56 -193 48 -263 78 -523 223 -122 68
-147 79 -165 70 -58 -27 -412 -231 -414 -239 -4 -10 489 -290 609 -346 608
-288 1330 -238 1888 131 318 210 558 491 711 832 111 247 157 448 169 740 11
244 12 521 2 537 -5 8 -72 -25 -217 -107z"/>
</g>
</svg>
